<svg width="625" height="121" viewBox="0 0 625 121" fill="none" xmlns="http://www.w3.org/2000/svg">
<path d="M192.42 48.78C190.1 48.78 187.88 48.52 185.76 48C183.68 47.48 181.88 46.78 180.36 45.9L181.08 37.86C182.88 38.98 184.76 39.86 186.72 40.5C188.72 41.1 190.56 41.4 192.24 41.4C194.16 41.4 195.72 41 196.92 40.2C198.12 39.4 198.72 38.34 198.72 37.02C198.72 35.94 198.32 35.12 197.52 34.56C196.72 33.96 195.46 33.32 193.74 32.64L192.3 32.04C192.1 31.96 191.88 31.88 191.64 31.8C191.4 31.68 191.12 31.56 190.8 31.44C188.56 30.52 186.76 29.66 185.4 28.86C184.04 28.02 182.86 26.86 181.86 25.38C180.9 23.9 180.42 21.98 180.42 19.62C180.42 15.78 181.72 12.76 184.32 10.56C186.92 8.36 190.54 7.26 195.18 7.26C198.7 7.26 202.3 7.98 205.98 9.42L204.66 17.34C203.18 16.5 201.58 15.84 199.86 15.36C198.18 14.88 196.58 14.64 195.06 14.64C193.18 14.64 191.72 15.02 190.68 15.78C189.64 16.5 189.12 17.48 189.12 18.72C189.12 19.8 189.48 20.64 190.2 21.24C190.92 21.84 192.08 22.48 193.68 23.16L196.14 24.12C198.46 25 200.38 25.86 201.9 26.7C203.42 27.54 204.72 28.76 205.8 30.36C206.88 31.92 207.42 33.96 207.42 36.48C207.42 40.36 206.1 43.38 203.46 45.54C200.82 47.7 197.14 48.78 192.42 48.78ZM237.781 48.78C233.861 48.78 230.401 47.92 227.401 46.2C224.401 44.48 222.061 42.06 220.381 38.94C218.741 35.82 217.921 32.24 217.921 28.2C217.921 24.12 218.741 20.52 220.381 17.4C222.021 14.28 224.341 11.86 227.341 10.14C230.341 8.42 233.821 7.56 237.781 7.56C241.701 7.56 245.161 8.42 248.161 10.14C251.161 11.82 253.481 14.2 255.121 17.28C256.761 20.36 257.581 23.92 257.581 27.96C257.581 32.08 256.761 35.72 255.121 38.88C253.481 42 251.161 44.44 248.161 46.2C245.161 47.92 241.701 48.78 237.781 48.78ZM237.781 41.16C241.061 41.16 243.681 39.98 245.641 37.62C247.641 35.26 248.641 32.12 248.641 28.2C248.641 25.64 248.181 23.38 247.261 21.42C246.381 19.42 245.101 17.9 243.421 16.86C241.781 15.78 239.901 15.24 237.781 15.24C235.661 15.24 233.761 15.78 232.081 16.86C230.441 17.9 229.161 19.42 228.241 21.42C227.361 23.38 226.921 25.64 226.921 28.2C226.921 30.76 227.361 33.02 228.241 34.98C229.161 36.94 230.441 38.46 232.081 39.54C233.721 40.62 235.621 41.16 237.781 41.16ZM269.594 8.04H278.294V40.44H292.694V48H269.594V8.04ZM314.675 48.78C312.355 48.78 310.135 48.52 308.015 48C305.935 47.48 304.135 46.78 302.615 45.9L303.335 37.86C305.135 38.98 307.015 39.86 308.975 40.5C310.975 41.1 312.815 41.4 314.495 41.4C316.415 41.4 317.975 41 319.175 40.2C320.375 39.4 320.975 38.34 320.975 37.02C320.975 35.94 320.575 35.12 319.775 34.56C318.975 33.96 317.715 33.32 315.995 32.64L314.555 32.04C314.355 31.96 314.135 31.88 313.895 31.8C313.655 31.68 313.375 31.56 313.055 31.44C310.815 30.52 309.015 29.66 307.655 28.86C306.295 28.02 305.115 26.86 304.115 25.38C303.155 23.9 302.675 21.98 302.675 19.62C302.675 15.78 303.975 12.76 306.575 10.56C309.175 8.36 312.795 7.26 317.435 7.26C320.955 7.26 324.555 7.98 328.235 9.42L326.915 17.34C325.435 16.5 323.835 15.84 322.115 15.36C320.435 14.88 318.835 14.64 317.315 14.64C315.435 14.64 313.975 15.02 312.935 15.78C311.895 16.5 311.375 17.48 311.375 18.72C311.375 19.8 311.735 20.64 312.455 21.24C313.175 21.84 314.335 22.48 315.935 23.16L318.395 24.12C320.715 25 322.635 25.86 324.155 26.7C325.675 27.54 326.975 28.76 328.055 30.36C329.135 31.92 329.675 33.96 329.675 36.48C329.675 40.36 328.355 43.38 325.715 45.54C323.075 47.7 319.395 48.78 314.675 48.78ZM350.87 31.38L337.49 8.04H347.27L355.37 23.82L363.41 8.04H373.01L359.57 31.38V48H350.87V31.38ZM393.209 48.78C390.889 48.78 388.669 48.52 386.549 48C384.469 47.48 382.669 46.78 381.149 45.9L381.869 37.86C383.669 38.98 385.549 39.86 387.509 40.5C389.509 41.1 391.349 41.4 393.029 41.4C394.949 41.4 396.509 41 397.709 40.2C398.909 39.4 399.509 38.34 399.509 37.02C399.509 35.94 399.109 35.12 398.309 34.56C397.509 33.96 396.249 33.32 394.529 32.64L393.089 32.04C392.889 31.96 392.669 31.88 392.429 31.8C392.189 31.68 391.909 31.56 391.589 31.44C389.349 30.52 387.549 29.66 386.189 28.86C384.829 28.02 383.649 26.86 382.649 25.38C381.689 23.9 381.209 21.98 381.209 19.62C381.209 15.78 382.509 12.76 385.109 10.56C387.709 8.36 391.329 7.26 395.969 7.26C399.489 7.26 403.089 7.98 406.769 9.42L405.449 17.34C403.969 16.5 402.369 15.84 400.649 15.36C398.969 14.88 397.369 14.64 395.849 14.64C393.969 14.64 392.509 15.02 391.469 15.78C390.429 16.5 389.909 17.48 389.909 18.72C389.909 19.8 390.269 20.64 390.989 21.24C391.709 21.84 392.869 22.48 394.469 23.16L396.929 24.12C399.249 25 401.169 25.86 402.689 26.7C404.209 27.54 405.509 28.76 406.589 30.36C407.669 31.92 408.209 33.96 408.209 36.48C408.209 40.36 406.889 43.38 404.249 45.54C401.609 47.7 397.929 48.78 393.209 48.78ZM429.03 15.6H418.11V8.04H448.59V15.6H437.79V48H429.03V15.6ZM460.012 8.04H484.312V15.6H468.592V23.58H481.612V30.9H468.592V40.44H484.312V48H460.012V8.04ZM505.988 19.8L503.468 48H495.728L499.508 8.04H510.308L520.508 36.72L530.408 8.04H541.208L544.868 48H537.068L534.308 19.92L523.748 48.42L516.608 49.08L505.988 19.8ZM557.296 8.04H581.596V15.6H565.876V23.58H578.896V30.9H565.876V40.44H581.596V48H557.296V8.04ZM603.618 15.6H592.698V8.04H623.178V15.6H612.378V48H603.618V15.6Z" fill="white"/>
<path d="M450.868 85.288C450.82 84.52 450.636 83.792 450.316 83.104C449.996 82.416 449.532 81.856 448.924 81.424C448.316 80.992 447.54 80.776 446.596 80.776C445.604 80.776 444.844 81.056 444.316 81.616C443.788 82.176 443.524 82.832 443.524 83.584C443.524 84.256 443.716 84.824 444.1 85.288C444.484 85.736 444.98 86.136 445.588 86.488C446.212 86.824 446.868 87.152 447.556 87.472C448.164 87.744 448.772 88.04 449.38 88.36C449.988 88.664 450.54 89.016 451.036 89.416C451.532 89.816 451.924 90.296 452.212 90.856C452.516 91.4 452.668 92.056 452.668 92.824C452.668 94.152 452.18 95.248 451.204 96.112C450.228 96.96 448.844 97.384 447.052 97.384C446.332 97.384 445.588 97.28 444.82 97.072C444.052 96.864 443.372 96.56 442.78 96.16L442.9 97.192H441.652L441.508 92.08H442.444C442.524 93.488 443.012 94.56 443.908 95.296C444.804 96.016 445.884 96.376 447.148 96.376C447.772 96.376 448.348 96.264 448.876 96.04C449.404 95.8 449.82 95.456 450.124 95.008C450.444 94.56 450.604 94.016 450.604 93.376C450.604 92.656 450.412 92.056 450.028 91.576C449.644 91.096 449.148 90.68 448.54 90.328C447.932 89.976 447.284 89.64 446.596 89.32C445.988 89.048 445.388 88.76 444.796 88.456C444.204 88.152 443.66 87.808 443.164 87.424C442.684 87.024 442.292 86.552 441.988 86.008C441.7 85.464 441.556 84.808 441.556 84.04C441.556 83.624 441.628 83.176 441.772 82.696C441.916 82.216 442.164 81.76 442.516 81.328C442.884 80.88 443.38 80.52 444.004 80.248C444.644 79.96 445.452 79.816 446.428 79.816C447.036 79.816 447.716 79.904 448.468 80.08C449.236 80.24 449.948 80.56 450.604 81.04L450.508 80.008H451.732V85.288H450.868ZM477.781 97.384C476.261 97.384 474.957 97.128 473.869 96.616C472.781 96.104 471.893 95.424 471.205 94.576C470.533 93.712 470.037 92.76 469.717 91.72C469.397 90.68 469.237 89.64 469.237 88.6C469.237 87.592 469.405 86.576 469.741 85.552C470.077 84.512 470.589 83.56 471.277 82.696C471.981 81.832 472.853 81.136 473.893 80.608C474.949 80.08 476.181 79.816 477.589 79.816C479.061 79.816 480.333 80.08 481.405 80.608C482.477 81.136 483.357 81.84 484.045 82.72C484.749 83.584 485.269 84.528 485.605 85.552C485.957 86.576 486.133 87.592 486.133 88.6C486.133 89.592 485.965 90.608 485.629 91.648C485.293 92.672 484.773 93.624 484.069 94.504C483.381 95.368 482.517 96.064 481.477 96.592C480.437 97.12 479.205 97.384 477.781 97.384ZM477.829 96.4C478.821 96.4 479.685 96.192 480.421 95.776C481.157 95.344 481.765 94.776 482.245 94.072C482.741 93.352 483.109 92.56 483.349 91.696C483.605 90.816 483.733 89.936 483.733 89.056C483.733 88.064 483.597 87.08 483.325 86.104C483.053 85.128 482.653 84.24 482.125 83.44C481.597 82.64 480.941 82 480.157 81.52C479.389 81.024 478.509 80.776 477.517 80.776C476.525 80.776 475.653 80.992 474.901 81.424C474.165 81.856 473.549 82.432 473.053 83.152C472.573 83.856 472.205 84.648 471.949 85.528C471.709 86.392 471.589 87.272 471.589 88.168C471.589 89.048 471.709 89.968 471.949 90.928C472.205 91.888 472.589 92.784 473.101 93.616C473.613 94.448 474.261 95.12 475.045 95.632C475.829 96.144 476.757 96.4 477.829 96.4ZM502.697 97V96.208C503.305 96.176 503.721 96.04 503.945 95.8C504.169 95.544 504.289 95.2 504.305 94.768C504.337 94.32 504.353 93.816 504.353 93.256V82.888C504.353 82.216 504.377 81.64 504.425 81.16C504.137 81.176 503.849 81.192 503.561 81.208C503.273 81.224 502.985 81.24 502.697 81.256V80.2H508.097V80.992C507.505 81.008 507.089 81.144 506.849 81.4C506.625 81.656 506.497 82 506.465 82.432C506.449 82.864 506.441 83.368 506.441 83.944V94.24C506.441 95.072 506.417 95.696 506.369 96.112L510.857 96.04C511.865 96.024 512.625 95.704 513.137 95.08C513.665 94.456 513.929 93.44 513.929 92.032H514.745L514.601 97H502.697ZM529.906 97V96.208C530.386 96.208 530.754 96.08 531.01 95.824C531.266 95.568 531.474 95.216 531.634 94.768C531.81 94.32 532.01 93.8 532.234 93.208L537.178 79.744H537.754L543.106 93.4C543.234 93.736 543.378 94.168 543.538 94.696C543.698 95.224 543.762 95.672 543.73 96.04C544.002 96.024 544.274 96.008 544.546 95.992C544.818 95.976 545.09 95.96 545.362 95.944V97H539.866V96.208C540.474 96.192 540.874 96.056 541.066 95.8C541.258 95.544 541.33 95.24 541.282 94.888C541.234 94.536 541.154 94.216 541.042 93.928L540.202 91.672L533.962 91.816L533.122 94.384C533.01 94.768 532.906 95.072 532.81 95.296C532.73 95.52 532.634 95.768 532.522 96.04C532.842 96.024 533.154 96.008 533.458 95.992C533.778 95.976 534.09 95.96 534.394 95.944V97H529.906ZM534.322 90.784H539.866L538.162 86.2C537.986 85.704 537.802 85.216 537.61 84.736C537.434 84.24 537.258 83.744 537.082 83.248H537.034C536.874 83.696 536.706 84.144 536.53 84.592C536.37 85.04 536.202 85.496 536.026 85.96L534.322 90.784ZM560.793 97V96.208C561.401 96.176 561.817 96.04 562.041 95.8C562.265 95.544 562.385 95.2 562.401 94.768C562.433 94.32 562.449 93.816 562.449 93.256V82.888C562.449 82.216 562.473 81.64 562.521 81.16C562.233 81.176 561.945 81.192 561.657 81.208C561.369 81.224 561.081 81.24 560.793 81.256V80.2C561.689 80.184 562.593 80.168 563.505 80.152C564.433 80.136 565.361 80.144 566.289 80.176C568.609 80.208 570.273 80.6 571.281 81.352C572.305 82.104 572.817 83.144 572.817 84.472C572.833 85.096 572.713 85.736 572.457 86.392C572.217 87.032 571.769 87.608 571.113 88.12C570.473 88.632 569.545 89.016 568.329 89.272C568.649 89.496 568.929 89.784 569.169 90.136C569.409 90.488 569.681 90.896 569.985 91.36L571.617 93.928C571.889 94.36 572.153 94.752 572.409 95.104C572.665 95.44 572.961 95.712 573.297 95.92C573.633 96.112 574.049 96.208 574.545 96.208V97H571.521C571.057 96.584 570.665 96.168 570.345 95.752C570.041 95.336 569.721 94.864 569.385 94.336L567.777 91.768C567.569 91.432 567.329 91.048 567.057 90.616C566.801 90.168 566.505 89.792 566.169 89.488C565.913 89.504 565.641 89.512 565.353 89.512C565.081 89.512 564.809 89.504 564.537 89.488V94.144C564.537 94.992 564.513 95.624 564.465 96.04C564.753 96.024 565.041 96.008 565.329 95.992C565.617 95.976 565.905 95.96 566.193 95.944V97H560.793ZM566.025 88.6C566.905 88.568 567.673 88.424 568.329 88.168C569.001 87.912 569.529 87.504 569.913 86.944C570.297 86.384 570.489 85.648 570.489 84.736C570.489 83.52 570.137 82.608 569.433 82C568.745 81.392 567.665 81.088 566.193 81.088C565.601 81.088 565.185 81.208 564.945 81.448C564.721 81.688 564.593 82.024 564.561 82.456C564.545 82.872 564.537 83.368 564.537 83.944V88.552C564.793 88.568 565.033 88.584 565.257 88.6C565.497 88.616 565.753 88.616 566.025 88.6ZM595.664 80.992C595.072 81.008 594.656 81.144 594.416 81.4C594.192 81.656 594.064 82 594.032 82.432C594.016 82.864 594.008 83.368 594.008 83.944V94.144C594.008 94.992 593.984 95.624 593.936 96.04C594.224 96.024 594.512 96.008 594.8 95.992C595.088 95.976 595.376 95.96 595.664 95.944V97H590.264V96.208C590.872 96.176 591.288 96.04 591.512 95.8C591.736 95.544 591.856 95.2 591.872 94.768C591.904 94.32 591.92 93.816 591.92 93.256V82.888C591.92 82.216 591.944 81.64 591.992 81.16C591.704 81.176 591.416 81.192 591.128 81.208C590.84 81.224 590.552 81.24 590.264 81.256V80.2H595.664V80.992ZM622.135 85.288C622.087 84.52 621.903 83.792 621.583 83.104C621.263 82.416 620.799 81.856 620.191 81.424C619.583 80.992 618.807 80.776 617.863 80.776C616.871 80.776 616.111 81.056 615.583 81.616C615.055 82.176 614.791 82.832 614.791 83.584C614.791 84.256 614.983 84.824 615.367 85.288C615.751 85.736 616.247 86.136 616.855 86.488C617.479 86.824 618.135 87.152 618.823 87.472C619.431 87.744 620.039 88.04 620.647 88.36C621.255 88.664 621.807 89.016 622.303 89.416C622.799 89.816 623.191 90.296 623.479 90.856C623.783 91.4 623.935 92.056 623.935 92.824C623.935 94.152 623.447 95.248 622.471 96.112C621.495 96.96 620.111 97.384 618.319 97.384C617.599 97.384 616.855 97.28 616.087 97.072C615.319 96.864 614.639 96.56 614.047 96.16L614.167 97.192H612.919L612.775 92.08H613.711C613.791 93.488 614.279 94.56 615.175 95.296C616.071 96.016 617.151 96.376 618.415 96.376C619.039 96.376 619.615 96.264 620.143 96.04C620.671 95.8 621.087 95.456 621.391 95.008C621.711 94.56 621.871 94.016 621.871 93.376C621.871 92.656 621.679 92.056 621.295 91.576C620.911 91.096 620.415 90.68 619.807 90.328C619.199 89.976 618.551 89.64 617.863 89.32C617.255 89.048 616.655 88.76 616.063 88.456C615.471 88.152 614.927 87.808 614.431 87.424C613.951 87.024 613.559 86.552 613.255 86.008C612.967 85.464 612.823 84.808 612.823 84.04C612.823 83.624 612.895 83.176 613.039 82.696C613.183 82.216 613.431 81.76 613.783 81.328C614.151 80.88 614.647 80.52 615.271 80.248C615.911 79.96 616.719 79.816 617.695 79.816C618.303 79.816 618.983 79.904 619.735 80.08C620.503 80.24 621.215 80.56 621.871 81.04L621.775 80.008H622.999V85.288H622.135Z" fill="#FFD029"/>
</svg>
